<!--?xml version="1.0" encoding="utf-8"?-->
<!-- Svg Vector Icons : http://www.onlinewebfonts.com/icon -->

<svg version="1.1" xmlns="http://www.w3.org/2000/svg" xmlns:xlink="http://www.w3.org/1999/xlink" x="0px" y="0px" viewBox="0 0 256 256" enable-background="new 0 0 256 256" xml:space="preserve">
<metadata> Svg Vector Icons : http://www.onlinewebfonts.com/icon </metadata>
<g><g><g><path fill="#AE21BF" data-title="Layer 0" xs="0" d="M92.9,12c-2.6,1.4-3.3,2.7-4.9,10c-4.2,18.5-7.2,24.5-13.2,26.3C70.7,49.5,63.1,49,52,46.8c-6-1.2-9.7-1.8-10.6-1.5c-2,0.5-4.5,3.2-5.2,5.5c-0.5,1.8-0.4,2.4,1,6.4c8.7,24,8.8,29.7,0.7,35.2c-3.3,2.2-9.4,5.1-17,8.1c-3.8,1.4-7.4,3-8.1,3.4c-2.7,1.8-3.7,7-1.9,9.8c0.5,0.8,4,3.8,7.8,6.7c11.3,8.6,16.2,14.2,16.9,19.2c0.5,3.9-3.3,11.9-10.7,21.8c-6.5,8.7-7.2,10.8-5.1,14.4c1.6,2.8,3.5,3.7,8.4,4c17.8,1.4,25.1,3.1,28.7,6.7c3.5,3.5,4.2,9.7,3.4,29.7c-0.2,5.7-0.1,6.3,0.8,7.6c1.5,2.1,3.3,3.2,5.4,3.5c1.7,0.2,3-0.2,11.1-4.4c13.9-7.2,20.8-9.1,25.4-6.9c3.9,1.8,8.7,8.1,15.2,19.8c1.8,3.3,3.9,6.6,4.5,7.2c2.7,2.7,6.8,2.8,9.7,0.2c0.9-0.8,3.2-4.2,5-7.5c6.2-11.3,11.2-17.9,15.2-19.8c4.6-2.2,11.5-0.3,25.4,6.9c10.3,5.3,11.3,5.5,14.8,2.7c2.8-2.2,3.1-3.8,2.5-12.6c-0.9-12.8-0.1-21.9,2.6-25.6c2.8-3.9,10.7-6.1,26.5-7.3c4.1-0.3,7.7-0.8,8.5-1.2c2.9-1.5,4.7-5.3,3.8-8.3c-0.2-0.9-2.6-4.6-5.3-8.2c-7.8-10.8-11.4-17.7-11.4-21.9c0-5.4,5-11.1,18.6-21.3c6.2-4.7,7.8-6.9,7.2-10.2c-0.8-4.1-2.2-5.2-11.6-8.7c-11.8-4.4-19.4-8.9-21.4-12.8c-2-3.9-1.2-10.1,2.8-21.8c4.5-13.1,4.5-13.1,3.6-15.5c-0.9-2.3-3.1-4.4-5.1-4.9c-0.7-0.2-5,0.4-10.6,1.6c-8.2,1.7-10.2,1.9-16.1,1.9c-7.5,0-8.5-0.3-11.3-3.5c-3.1-3.5-5.4-9.8-8.3-23c-0.8-3.7-1.9-7.3-2.3-8c-1.7-2.5-5.9-3.8-8.8-2.7c-0.7,0.2-4.3,3.4-8,6.9C137.8,29,133,32.2,127.9,32.2c-5.1,0-10.1-3.4-20.9-13.8c-3.6-3.5-7.1-6.6-7.9-6.8C97.2,10.8,94.9,11,92.9,12z M178.8,87.4c0.3,0.5,2.9,51.3,2.6,51.6c-0.3,0.3-5.4,1.6-6.5,1.6c-0.8,0-2.4-2.8-8.5-14.9l-7.5-14.9l0.4,10.6c0.2,5.8,0.3,13.4,0.3,17v6.4l-3.2,0.8c-1.7,0.5-3.3,0.7-3.6,0.4c-0.8-0.8-22.9-45.6-22.7-46.2c0.2-0.7,7-2.4,7.6-1.8c0.4,0.4,11.6,23.6,13.9,29l1.3,3l-0.3-4.9c-1-17.7-1.5-30.6-1.4-30.9c0.2-0.3,1.6-0.8,5.2-1.6c1.3-0.3,1.4-0.2,9.3,15.6c7.4,14.8,7.9,15.8,7.6,13.3c-0.5-5.4-2.3-31.6-2.2-32.1c0.1-0.3,1.5-1,3.2-1.4C178,86.8,178.5,86.8,178.8,87.4z M126.1,104.4c0.5,1.8,0.7,3,0.4,3.4c-0.2,0.2-3.2,1.2-6.4,2c-3.3,0.9-6.1,1.8-6.3,1.9c-0.5,0.5,2.9,13.2,3.5,13.2c0.3,0,3.1-0.6,6.2-1.5c4.4-1.1,5.7-1.3,6.2-0.8c0.8,0.8,1.8,5.3,1.3,5.8c-0.2,0.2-3,1-6.2,1.8c-3.2,0.8-5.9,1.6-6,1.7c-0.1,0.1,3.7,15.3,3.9,15.6c0.1,0.1,3.2-0.6,6.9-1.6c3.7-1,7-1.7,7.3-1.6c0.7,0.3,1.9,4.3,1.7,5.6c-0.1,0.8-2.1,1.4-10.7,3.7c-8.1,2.1-10.7,2.7-11.2,2.2c-0.9-0.9-13.1-48.2-12.6-48.7c0.5-0.5,19.8-5.8,20.5-5.6C125,101.4,125.6,102.8,126.1,104.4z M95.6,112.1c4,14.1,12.1,46.5,11.7,46.8c-0.4,0.4-5.2,1.9-6.3,1.9c-0.3,0-5.5-6.4-11.6-14.2c-6.1-7.8-11.1-14.2-11.2-14.1c0,0.1,0.1,0.7,0.3,1.4c0.7,1.9,7.9,29.3,7.9,30.1c0,0.8-6.3,2.7-6.9,2c-0.6-0.6-12.9-48-12.6-48.7c0.3-0.8,6.3-2.3,6.9-1.7c0.2,0.2,5.4,6.7,11.3,14.5c6,7.7,10.9,14,10.9,13.9c0,0-0.2-1.2-0.6-2.5c-1.7-5.5-7.6-28.3-7.6-29.2c0-0.8,0.5-1.2,2.9-1.8C94.9,109.4,94.8,109.3,95.6,112.1z"/></g></g></g>
</svg>